<svg viewBox="0 0 100 100" fill="none" xmlns="http://www.w3.org/2000/svg">
<g clip-path="url(#clip0_187_14960)">
<path d="M32 6.5C15.7 6.5 2.5 19.8 2.5 36V64C2.5 80.2 15.7 93.5 32 93.5C48.3 93.5 61.4 80.2 61.4 64V36C61.4 19.8 48.2 6.5 32 6.5ZM53.1 64C53.1 75.6 43.6 85.1 32 85.1C20.4 85.1 10.9 75.6 10.9 64V36C10.9 24.4 20.4 14.9 32 14.9C43.6 14.9 53.1 24.4 53.1 36V64Z" fill="#5D81F7"/>
<path d="M32 24.1001C29.7 24.1001 27.8 26.0001 27.8 28.3001V39.6001C27.8 41.9001 29.7 43.8001 32 43.8001C34.3 43.8001 36.2 41.9001 36.2 39.6001V28.2001C36.1 25.9001 34.3 24.1001 32 24.1001Z" fill="#5D81F7"/>
<path d="M91.2 73.6999L86.4 78.4999V58.0999C86.4 55.9999 84.7 54.3999 82.7 54.3999C80.7 54.3999 79 56.0999 79 58.0999V78.4999L74.2 73.6999C72.7 72.1999 70.4 72.2999 69 73.6999C67.5 75.1999 67.5 77.4999 69 78.8999L80 90.0999C80.7 90.7999 81.6 91.1999 82.6 91.1999C83.6 91.1999 84.5 90.7999 85.2 90.0999L96.3 78.9999C97.7 77.4999 97.7 75.1999 96.3 73.6999C95 72.1999 92.6 72.1999 91.2 73.6999Z" fill="#5D81F7"/>
<path d="M74.1 26.3001L78.9 21.5001V41.9001C78.9 44.0001 80.6 45.6001 82.6 45.6001C84.6 45.6001 86.3 43.9001 86.3 41.9001V21.5001L91.1 26.3001C91.8 27.0001 92.8 27.4001 93.7 27.4001C94.6 27.4001 95.6 27.0001 96.3 26.3001C97.7 24.8001 97.7 22.5001 96.3 21.0001L85.3 9.9001C83.9 8.5001 81.4 8.5001 80 9.9001L68.9 21.1001C67.5 22.6001 67.5 24.9001 68.9 26.3001C70.3 27.8001 72.7 27.8001 74.1 26.3001Z" fill="#5D81F7"/>
</g>
<defs>
<clipPath id="clip0_187_14960">
<rect width="100" height="100" fill="white"/>
</clipPath>
</defs>
</svg>
