<svg width="624" height="539" viewBox="0 0 624 539" fill="none" xmlns="http://www.w3.org/2000/svg">
<g clip-path="url(#clip0_192_1548)">
<path d="M594.359 100.92C590.539 96.05 584.449 89.35 575.549 83.23C565.389 76.25 556.319 73.3 548.779 70.85C545.699 69.85 535.119 66.54 520.249 64.98C520.249 64.98 504.949 63.38 488.759 64.91C417.959 71.61 336.699 108.36 336.699 108.36C324.789 113.75 273.279 137.39 210.419 179.93C157.469 215.75 125.189 245.54 112.609 257.5C100.569 268.95 58.8391 309.45 38.0091 356.03C28.7091 376.83 26.2791 392.79 25.8191 404.8C25.2791 418.8 27.3091 430.33 29.1291 437.93" stroke="black" stroke-miterlimit="10"/>
<path d="M559.098 56.3001C552.708 52.1601 542.938 46.5201 530.268 41.8801C506.648 33.2301 479.688 30.4901 434.618 38.2801C379.888 47.7301 339.748 65.5701 329.488 70.2101C313.768 77.3201 169.078 143.92 73.1085 245.91C73.1085 245.91 42.5885 278.35 19.3085 329.4C14.0285 340.98 8.44849 355.79 8.28849 374.71C8.19849 385.66 9.94849 394.72 11.5685 400.94" stroke="black" stroke-miterlimit="10"/>
<path d="M520.649 27.69C516.659 25.77 510.949 23.28 503.869 21.06C495.979 18.58 485.269 16.07 467.589 15.21C445.189 14.11 427.409 16.42 419.699 17.54C383.039 22.83 354.459 32.72 342.729 36.94C280.129 59.46 231.629 88 220.699 94.51C220.699 94.51 107.469 161.96 41.8186 246.93C27.4786 265.48 16.9086 283.92 9.89859 305.45C4.17859 323.01 2.27859 338.16 1.55859 347.88" stroke="black" stroke-miterlimit="10"/>
<path d="M620.111 234.82C623.261 213.24 626.841 164.54 601.151 112.65C579.841 69.61 549.021 45.86 538.241 38.14C479.331 -4.08005 415.381 -0.150045 391.641 1.30996C365.511 2.90996 346.411 8.19995 324.521 14.4C271.271 29.47 230.571 51.15 203.791 67.81C183.881 79.48 161.841 94.04 138.971 112.16C104.841 139.2 60.1609 175.3 28.1309 235.33C17.9609 254.39 7.67091 274.09 2.79091 302.74C1.95091 307.64 -5.58909 355.07 12.2809 402.7C16.8109 414.78 22.5509 425.72 23.7509 428C27.5409 435.16 36.5409 451.27 50.0709 467.34C58.3909 477.22 82.6609 505.42 123.791 522.75C150.811 534.14 173.461 535.92 191.731 537.21C274.401 543.02 340.751 512.02 373.271 496.83C404.381 482.29 433.221 464.16 441.491 458.93C452.661 451.86 467.371 442.51 484.741 429.06C493.821 422.03 521.481 400.04 546.371 371.46C575.481 338.03 610.981 297.26 620.091 234.84L620.111 234.82Z" stroke="black" stroke-miterlimit="10"/>
<path d="M615.169 149.36C611.679 142 605.189 130.85 593.499 121.5C584.989 114.68 568.409 104.57 536.739 103.96C443.389 102.15 345.819 148.34 345.819 148.34C318.829 161.12 208.869 214.74 113.619 313.46C113.619 313.46 54.1194 375.13 51.5494 433.4C50.7994 450.33 56.0894 464.48 56.0894 464.48C60.3794 475.97 66.6994 484.02 70.8894 488.64" stroke="black" stroke-miterlimit="10"/>
<path d="M622.512 202.21C621.782 195.49 619.712 185.29 613.272 175.04C600.922 155.38 580.692 148.63 568.122 144.63C541.012 136.01 516.842 138.91 496.512 141.53C466.742 145.37 389.222 159.94 271.842 233.93C249.462 248.37 220.772 267.04 186.552 297C186.552 297 104.702 368.66 86.3319 436.96C80.7519 457.71 82.7919 470.78 85.5519 480.37C90.3819 497.2 100.462 508.5 106.682 514.41" stroke="black" stroke-miterlimit="10"/>
<path d="M611.38 270.88C613.02 265.95 614.9 258.83 615.49 250.12C616.06 241.84 617.23 224.75 607.68 209.38C597.97 193.74 582.3 188.12 571.05 184.08C554.08 177.98 539.76 178.37 524.02 178.96C499.7 179.86 481.38 184.7 475.12 186.41C401.95 206.43 337.41 241.72 337.41 241.72C330.59 245.45 265.84 281.3 201.7 338.37C198.6 341.13 172.96 364.2 147.04 399.79C136.44 414.35 127.93 428.07 122.58 446.54C118.86 459.4 114.88 473.86 119.99 491.06C125.16 508.44 136.65 518.66 140.18 521.6C151.41 530.95 163.03 534.04 168.75 535.16" stroke="black" stroke-miterlimit="10"/>
<path d="M579.381 330.66C584.641 324.15 595.941 308.3 598.201 285.28C599.091 276.17 601.081 255.73 588.961 239.07C572.731 216.77 541.671 215.67 521.141 214.94C499.911 214.18 484.051 218.32 459.361 224.97C429.761 232.94 407.841 242.33 398.261 246.59C311.341 285.16 248.701 340.33 227.001 359.4C220.781 364.87 195.461 387.46 173.371 423.92C151.721 459.64 152.521 476.73 153.991 485.52C154.801 490.34 159.131 512.46 177.401 524.33C182.961 527.94 187.781 529.28 196.351 531.59C206.711 534.38 221.731 537.19 240.671 536.64" stroke="black" stroke-miterlimit="10"/>
<path d="M547.682 357.85C552.842 350.7 587.982 302.01 569.242 270.64C553.502 244.29 508.372 244.6 503.852 244.63C497.202 244.68 491.662 245.57 480.592 247.37C458.072 251.02 441.542 256.54 428.322 261.02C423.992 262.49 408.172 267.97 387.982 277.09C376.392 282.33 363.452 288.8 348.982 297.08C321.092 313.04 276.302 339.18 234.132 388.07C215.682 409.46 183.322 451.92 190.302 483.5C193.432 497.68 201.952 506.8 201.952 506.8C205.072 510.14 213.262 517.85 232.462 521.78C254.322 526.26 272.762 522.22 289.612 517.9C322.682 509.42 339.222 505.18 366.172 493.49C366.172 493.49 431.722 465.32 491.562 415.26C507.732 401.73 520.612 388.56 521.872 387.26C527.952 381.02 539.632 369.01 547.672 357.86L547.682 357.85Z" stroke="black" stroke-miterlimit="10"/>
<path d="M521.79 365.09C526.1 359.12 555.44 318.46 539.79 292.26C526.65 270.25 488.96 270.51 485.18 270.54C479.63 270.58 475 271.33 465.76 272.83C446.95 275.88 433.15 280.48 422.11 284.23C414.33 286.87 402.54 291.19 388.43 297.65C355.76 312.62 332.87 328.95 318.66 339.21C307.28 347.42 294.74 356.53 279.58 370.72C266.62 382.86 252.01 396.73 238.82 418.62C228.94 435.02 219.45 451.29 223.35 470.01C224.03 473.25 225.96 481.98 233.08 489.47C242.31 499.18 254.59 500.87 261.29 501.79C298.48 506.91 363.85 480.92 370.22 478.35C370.22 478.35 424.96 454.82 474.93 413.02C488.43 401.72 499.19 390.72 500.24 389.64C505.31 384.43 515.07 374.4 521.79 365.09Z" stroke="black" stroke-miterlimit="10"/>
<path d="M521.37 302.62C518.32 297.9 514.19 295.46 511.68 293.96C504.82 289.85 498.25 289.25 491.95 288.74C483.42 288.05 476.82 289 474.04 289.42C451.41 292.87 431.71 299.94 430.87 300.24C415.04 306 400.44 312.6 385.79 320.23C376.26 325.2 350.16 339.23 318.71 362.97C316.31 364.78 289.77 384.95 270.79 405.92C270.79 405.92 261.15 416.58 251.66 432.84C249.67 436.26 247.98 439.42 246.62 443.72C245.17 448.28 242.85 457.88 245.93 467.43C248.51 475.45 254.96 479.32 258.24 481.17C265.66 485.36 279.86 489.46 316.4 480.18C330.81 476.52 350.8 470.25 373.63 459.01C388.25 451.9 400.37 445.04 409.69 439.41C431.27 426.38 448.27 413.75 460.65 403.74C478.54 389.27 488.05 379.28 490.42 376.77C492.98 374.05 501.5 365.56 510.07 352.58C521.29 335.58 522.85 329.62 524.05 325.78C525.51 321.1 526.86 311.13 521.36 302.62H521.37Z" stroke="black" stroke-miterlimit="10"/>
<path d="M487.288 305.56C479.028 304.22 472.308 305.7 463.218 307.78C458.378 308.89 454.138 310.17 446.028 313.04C437.268 316.14 428.598 319.22 416.268 324.56C408.378 327.98 395.438 333.62 379.688 342.41C359.528 353.66 345.738 363.93 333.218 373.25C318.128 384.49 306.268 394.57 296.268 404.22C295.598 404.87 288.108 412.14 279.468 422.73C278.228 424.25 273.748 429.78 269.128 437.75C264.758 445.28 264.018 448.52 263.918 451.37C263.758 455.98 265.228 460.29 266.718 462.59C274.348 474.32 304.768 467.74 315.588 465.39C338.638 460.4 355.968 451.63 371.268 443.76C381.408 438.55 388.838 434.03 400.708 426.83C412.728 419.53 423.448 412.99 436.758 403.09C446.508 395.84 453.438 389.91 459.798 384.48C473.918 372.41 480.988 366.38 486.268 360.03C488.158 357.77 513.798 326.51 504.468 312.84C501.028 307.79 493.818 306.62 487.278 305.56H487.288Z" stroke="black" stroke-miterlimit="10"/>
<path d="M355.911 379.64C345.061 387.08 337.201 392.59 324.401 403.27C321.371 405.8 296.261 426.16 293.651 439.64C293.481 440.52 293.041 442.8 294.311 444.86C296.261 448.01 300.971 448.55 302.721 448.76C323.161 451.14 377.141 421.22 377.141 421.22C384.371 417.21 405.711 405.94 431.871 386.69C445.761 376.47 458.031 366.23 471.221 351.45C476.241 345.82 482.671 335.18 478.561 330.59C474.961 326.57 464.021 328.46 457.441 329.6C455.721 329.9 451.111 330.76 441.651 334.14C437.261 335.71 433.321 337.28 429.991 338.69C424.801 340.9 421.111 342.7 419.551 343.47C400.161 353.04 380.641 362.67 355.911 379.64Z" stroke="black" stroke-miterlimit="10"/>
<path d="M360.949 383.27C350.989 389.98 343.759 394.94 331.839 404.36C329.019 406.59 305.669 424.62 302.209 435.5C301.979 436.21 301.399 438.05 302.299 439.58C303.679 441.93 307.659 442.01 309.129 442.04C326.389 442.4 375.289 414.64 375.289 414.64C381.839 410.92 401.119 400.39 425.259 383.17C438.069 374.03 449.509 364.99 462.139 352.29C466.949 347.45 473.419 338.54 470.329 335.21C467.619 332.29 458.089 334.61 452.359 336C450.859 336.36 446.839 337.4 438.439 340.78C434.539 342.35 431.029 343.89 428.049 345.26C423.409 347.4 420.079 349.11 418.689 349.83C401.229 358.87 383.649 367.96 360.949 383.26V383.27Z" stroke="black" stroke-miterlimit="10"/>
<path d="M366.132 386.91C357.232 392.79 350.752 397.12 339.932 405.18C337.372 407.09 316.232 422.55 312.102 430.84C311.832 431.38 311.132 432.78 311.682 433.82C312.522 435.4 315.742 435.07 316.932 434.95C330.912 433.52 373.992 408.43 373.992 408.43C379.762 405.07 396.702 395.48 418.382 380.53C429.892 372.59 440.282 364.86 452.072 354.35C456.562 350.34 462.902 343.19 460.782 341.06C458.932 339.2 450.912 341.82 446.092 343.41C444.832 343.82 441.442 344.97 434.202 348.27C430.842 349.8 427.802 351.27 425.222 352.57C421.192 354.59 418.282 356.16 417.062 356.83C401.782 365.15 386.402 373.52 366.122 386.93L366.132 386.91Z" stroke="black" stroke-miterlimit="10"/>
<path d="M369.979 391.72C362.399 396.6 356.879 400.19 347.489 406.65C345.269 408.18 326.969 420.65 322.349 426.17C322.049 426.53 321.269 427.46 321.459 427.98C321.749 428.77 324.129 428.05 325.019 427.79C335.369 424.69 371.379 403.03 371.379 403.03C376.199 400.13 390.299 391.77 408.889 379.52C418.759 373.01 427.769 366.81 438.349 358.74C442.379 355.67 448.359 350.46 447.259 349.56C446.299 348.77 439.999 351.61 436.209 353.31C435.219 353.76 432.549 354.98 426.679 358.08C423.959 359.52 421.479 360.87 419.359 362.05C416.059 363.88 413.649 365.28 412.639 365.86C399.989 373.2 387.249 380.59 369.979 391.72Z" stroke="black" stroke-miterlimit="10"/>
<path d="M351.202 375.2C339.372 383.45 330.802 389.56 317.032 401.61C313.772 404.46 286.682 427.38 284.962 443.65C284.852 444.71 284.562 447.47 286.232 450.08C288.792 454.08 294.292 455.12 296.332 455.5C320.202 460.01 379.752 427.68 379.752 427.68C387.722 423.35 411.322 411.24 439.722 389.77C454.802 378.37 468.012 366.82 481.842 349.8C487.112 343.32 493.522 330.82 488.322 324.89C483.772 319.69 471.302 321.15 463.802 322.02C461.842 322.25 456.592 322.94 445.972 326.33C433.342 330.35 424.142 334.67 421.312 336C399.802 346.17 378.152 356.41 351.192 375.21L351.202 375.2Z" stroke="black" stroke-miterlimit="10"/>
</g>
<defs>
<clipPath id="clip0_192_1548">
<rect width="623.01" height="538.41" fill="white"/>
</clipPath>
</defs>
</svg>
